<?xml version="1.0" encoding="UTF-8"?><svg xmlns="http://www.w3.org/2000/svg" viewBox="0 0 76 76"><defs><style>.d{fill:none;}.e{fill:#231f20;}</style></defs><g id="a"/><g id="b"><g id="c"><g><rect class="e" x="63.94" y="37.91" width="9.7" height="1.5"/><rect class="e" x="3.87" y="37.91" width="10.39" height="1.5"/><rect class="e" x="69.08" y="41.46" width="4.13" height="1.5"/><rect class="e" x="3.07" y="41.46" width="4.47" height="1.5"/><rect class="e" x="3.79" y="68.47" width="6.34" height="1.5"/><rect class="e" x="3.99" y="64.64" width="3.55" height="1.5"/><rect class="e" x="69.34" y="65.04" width="4" height="1.5"/><rect class="e" x="67.34" y="67.99" width="6" height="1.5"/><path class="e" d="M76,76H0V0H76V76ZM4,72H72V4H4V72Z"/><path class="e" d="M53.46,46.12l-1.11-1.67c.09-.06,8.79-5.93,13.9-16.4,1.78-3.48-.35-6.59-2.72-8.2-2.13-1.45-4.46-1.71-5.43-.62l-1.56,1.76-.19-2.35c-.26-3.2-1.28-5.31-3.04-6.28-2.54-1.38-6.01-.12-7.14,.49l-.74,.4-.52-.66c-1.64-2.1-3.46-3.19-5.42-3.25-3.61-.12-6.64,3.26-6.67,3.29l-.45,.5-.64-.22s-4.68-1.62-7.68,.32c-1.54,1-2.42,2.82-2.63,5.41l-.19,2.35-1.56-1.76c-.97-1.1-3.3-.83-5.43,.62-2.36,1.61-4.5,4.72-2.73,8.19,5.13,10.5,13.74,16.29,13.83,16.35l-1.11,1.67c-.37-.25-9.15-6.15-14.51-17.12-2.21-4.31,.11-8.5,3.39-10.73,2.3-1.57,4.74-2.02,6.53-1.33,.48-2.41,1.6-4.19,3.32-5.31,3.11-2.01,7.24-1.15,8.8-.71,1.11-1.08,4.11-3.6,7.76-3.49,2.36,.07,4.52,1.21,6.43,3.39,1.99-.85,5.5-1.65,8.3-.12,2.04,1.12,3.34,3.21,3.87,6.24,1.79-.68,4.22-.22,6.51,1.34,3.28,2.23,5.59,6.42,3.38,10.75-5.35,10.95-14.21,16.92-14.58,17.17Z"/><path class="d" d="M13.23,53.34s-1.23,1.68,5.98,5.74c15.46,7.9,18.84,5.63,32.28,3.06s16.85-9.88,16.85-9.88c0,0-5.26-5.88-30.64-5.52s-24.47,6.61-24.47,6.61Z"/><path class="e" d="M58.86,55.65l-.39-1.45c1.11-.3,1.79-.71,1.9-1.17,.13-.51-.41-1.16-.56-1.3-3.26-2.54-6.86-4.47-10.65-5.67l.45-1.43c3.95,1.26,7.71,3.26,11.18,5.97,.2,.19,1.39,1.39,1.02,2.81-.27,1.03-1.27,1.79-2.97,2.24Z"/><path class="e" d="M19.22,55.66c-.3-.07-2.99-.7-3.69-2.36-.2-.48-.33-1.24,.24-2.17,.81-1.33,5.42-4.32,11.61-6.25l.45,1.43c-6.28,1.96-10.31,4.84-10.77,5.6-.25,.42-.2,.66-.14,.8,.31,.74,1.91,1.32,2.63,1.48l-.32,1.46Z"/><path class="e" d="M38.34,66.39c-16.7,0-24.36-4.14-27.84-7.62-3.42-3.42-3.46-6.73-3.46-6.87h2c0,.12,.54,12.49,29.3,12.49h.1v2h-.1Z"/><path class="e" d="M38.43,66.39h-.1v-2h.11c29.1,0,29.65-12.39,29.65-12.51h2c0,.15-.04,3.43-3.45,6.83-3.51,3.5-11.25,7.68-28.2,7.68Z"/><path class="e" d="M38.46,59.49c-2.07,0-4.36-.32-6.57-1.26l-.12,.02c-2.39,.37-8.63,1.34-13.28-2.42-2.74,.26-9.9-.42-11.2-2.89-.2-.39-.56-1.4,.51-2.5,2.83-2.89,11.29-5.02,11.65-5.11,.09-.03,2.94-.81,7.58-1.46l.28,1.98c-4.5,.63-7.32,1.4-7.35,1.41-2.32,.58-8.7,2.51-10.73,4.57-.15,.15-.17,.23-.17,.23,.45,1.03,6.8,2.22,9.56,1.73l.47-.08,.36,.32c3.99,3.48,9.61,2.61,12.01,2.24l.71-.11,.27,.12c5.79,2.62,12.59,.11,12.66,.09l.26-.1,.27,.05c.08,.01,8.37,1.41,12.56-2.25l.36-.32,.47,.08c2.87,.51,8.7-.79,9.05-1.77,0,.02-.05-.08-.19-.22-2.02-2.06-8.41-4-10.7-4.57-2.44-.64-4.98-1.15-7.57-1.51l.28-1.98c2.66,.37,5.28,.9,7.78,1.55,.35,.09,8.8,2.21,11.63,5.1,1.1,1.13,.74,2.17,.53,2.56-1.24,2.34-7.79,3.16-10.69,2.86-4.55,3.59-12.06,2.69-13.6,2.46-.86,.29-3.67,1.16-7.08,1.16Z"/><rect class="e" x="20.16" y="18.45" width="1.5" height="1.8" transform="translate(-7.04 13.82) rotate(-31.58)"/><rect class="e" x="31.67" y="11.97" width="1.5" height="2.24" transform="translate(-1.8 5.93) rotate(-10.18)"/><rect class="e" x="44.39" y="12.16" width="1.88" height="1.5" transform="translate(23.23 54.54) rotate(-77.94)"/><rect class="e" x="56.01" y="18.6" width="1.78" height="1.5" transform="translate(11.07 58.23) rotate(-59.09)"/><rect class="e" x="24.37" y="21.81" width="1.5" height="7.71" transform="translate(-10.19 19.11) rotate(-35.11)"/><rect class="e" x="33.49" y="17.34" width="1.5" height="7.62" transform="translate(-4 8.6) rotate(-13.53)"/><rect class="e" x="39.21" y="19.98" width="8.57" height="1.5" transform="translate(11.69 56.93) rotate(-74.17)"/><rect class="e" x="47.76" y="24.4" width="8.07" height="1.5" transform="translate(-1.27 47.51) rotate(-48.75)"/><path class="e" d="M12.97,26.56l-1.42-.48c.06-.17,1.47-4.25,4.29-5.63,1.1-.54,2.26-.6,3.45-.19l-.49,1.42c-.81-.28-1.56-.24-2.3,.12-1.88,.92-3.18,3.75-3.52,4.77Z"/><path class="e" d="M24.12,19.02l-1.5-.08c0-.15,.21-3.62,2.61-5.1,1.46-.9,3.35-.84,5.61,.16l-.61,1.37c-1.78-.79-3.2-.88-4.21-.26-1.73,1.06-1.9,3.87-1.9,3.9Z"/><path class="e" d="M35.49,13.89l-1.04-1.08c.1-.1,2.54-2.4,5.31-2.17,1.43,.12,2.67,.89,3.68,2.26l-1.21,.88c-.75-1.02-1.6-1.57-2.59-1.65-2.09-.19-4.13,1.73-4.15,1.75Z"/><path class="e" d="M53.71,18.61c-.07-1.81-.6-3.05-1.56-3.68-1.71-1.12-4.34-.13-4.37-.12l-.54-1.4c.14-.05,3.37-1.28,5.73,.26,1.39,.91,2.15,2.56,2.24,4.88l-1.5,.06Z"/><path class="e" d="M64.3,26.18c-.38-1.92-1.11-3.23-2.17-3.91-1.16-.74-2.33-.46-2.38-.44l-.38-1.45c.07-.02,1.81-.46,3.53,.61,1.44,.9,2.4,2.55,2.87,4.9l-1.47,.29Z"/><rect class="e" x="18.19" y="53.69" width="2.8" height="1.5" transform="translate(-36.27 39.36) rotate(-55.1)"/><rect class="e" x="21.52" y="54.39" width="4.52" height="1.5" transform="translate(-35.05 43.1) rotate(-55.1)"/><rect class="e" x="25.37" y="54.77" width="5.43" height="1.5" transform="translate(-33.52 46.82) rotate(-55.13)"/><rect class="e" x="30.24" y="54.69" width="5.25" height="1.5" transform="translate(-31.41 50.71) rotate(-55.13)"/><rect class="e" x="34.27" y="55.01" width="6.02" height="1.5" transform="translate(-29.78 54.43) rotate(-55.1)"/><rect class="e" x="38.77" y="55.11" width="6.26" height="1.5" transform="translate(-27.88 58.28) rotate(-55.11)"/><rect class="e" x="44.22" y="54.67" width="5.15" height="1.5" transform="translate(-25.36 62.83) rotate(-55.69)"/><rect class="e" x="48.89" y="54.68" width="5.65" height="1.5" transform="translate(-23.33 66.17) rotate(-55.13)"/><rect class="e" x="54.29" y="54.28" width="4.67" height="1.5" transform="translate(-20.89 70.03) rotate(-55.13)"/><path class="e" d="M38.44,50.1c-6.31,0-11.45-5.13-11.45-11.45s5.13-11.45,11.45-11.45,11.45,5.14,11.45,11.45-5.14,11.45-11.45,11.45Zm0-21.39c-5.48,0-9.95,4.46-9.95,9.95s4.46,9.95,9.95,9.95,9.95-4.46,9.95-9.95-4.46-9.95-9.95-9.95Z"/><path class="e" d="M36.27,66.18c-17.93,0-18.55-7.88-18.57-8.23l1.5-.08c0,.07,.78,7.39,19.22,6.77l.05,1.5c-.76,.03-1.49,.04-2.19,.04Z"/><path class="e" d="M40.45,66.18c-.69,0-1.41-.01-2.15-.04l.05-1.5c18.7,.62,19.74-7.06,19.75-7.14l1.49,.14c-.03,.36-.95,8.53-19.15,8.53Z"/><path class="e" d="M38.38,66.14c-2.35,0-4.15-.67-5.34-1.99-1.76-1.94-1.5-4.55-1.49-4.66l1.49,.16s-.19,2.07,1.12,3.51c.91,1,2.32,1.51,4.28,1.49,2.01,0,3.51-.52,4.47-1.54,1.29-1.38,1.19-3.28,1.18-3.3l1.5-.11c0,.1,.17,2.54-1.57,4.41-1.26,1.36-3.2,2.02-5.64,2.03Z"/></g></g></g></svg>