<?xml version="1.0" encoding="UTF-8"?><svg xmlns="http://www.w3.org/2000/svg" viewBox="0 0 76 76"><defs><style>.d{fill:#231f20;}</style></defs><g id="a"/><g id="b"><g id="c"><g><rect class="d" x="34.58" y="11.21" width="10.35" height="1.5" transform="translate(-1.41 6.6) rotate(-9.33)"/><path class="d" d="M13.78,16.99l-.1-.77c-.64-5.19,6.45-9.51,6.75-9.7l.18-.11h23.33v1.5H21.05c-.96,.62-5.63,3.8-5.89,7.33l14.02-2.3,.24,1.48-15.63,2.57Z"/><rect class="d" x="43.77" y="2.92" width="2.5" height="12.95" transform="translate(-.93 7.57) rotate(-9.52)"/><path class="d" d="M53.67,55.85c3.93-.41,6.31-.61,7.82-4.96l-3.97-.37s1.92-2.01,4.78-6.01c2.86-4.01,6.05-10.13,6.05-10.13,0,0-.89,7.8-.89,11.96s-.07,8.41-.07,8.41l-2.81-2.67s-2.78,8.36-12.38,9.58"/><polygon class="d" points="53.81 9.79 53.61 8.3 54.34 8.2 54.21 7.23 53.37 7.35 53.16 5.86 55.49 5.53 56.04 9.49 53.81 9.79"/><path class="d" d="M26.81,36.73c-2.07-.1-3.79-1.78-3.81-2.82-.01-.51,.35-.92,.86-.97l.2-.02,.19,.09c1.9,.9,3.29-.24,3.55-.47,.43-1.09-.02-1.55-.52-1.86-.85-.52-1.79-.77-2.14-.56-.34,.2-.87,.6-1.38,.98-1.56,1.16-2.03,1.49-2.57,1.31l-.17-.08c-2.77-1.76-3.53-4.87-3.3-6.07,.23-1.27,1.68-2.54,2.83-3.56,.42-.37,.82-.72,1.02-.95,.3-.35,.31-.7,.33-1.07,.02-.38,.04-.85,.44-1.18,.48-.33,2.58-2.49,3.81-3.78,.16-.17,4.11-4.43,7.29-4.82l.41-.05,1.32,1.63c1.47-.16,6.19-.39,8.47,2.59,.41,.6,.68,.69,.73,.68l.86,1.22c-.22,.18-.62,.34-1.1,.27-.61-.09-1.19-.52-1.71-1.29-2.1-2.73-7.41-1.94-7.46-1.93l-.43,.07-1.31-1.62c-2.16,.53-5.01,3.22-5.98,4.28-.52,.55-2.97,3.1-3.84,3.83,0,.05,0,.11,0,.18-.02,.46-.05,1.24-.69,1.98-.27,.31-.69,.68-1.17,1.1-.88,.77-2.21,1.95-2.35,2.71-.09,.5,.3,2.84,2.33,4.33,.34-.21,.93-.65,1.34-.96,.57-.42,1.1-.82,1.5-1.06,1.29-.78,3.15,.24,3.7,.57,1.37,.84,1.76,2.24,1.07,3.84l-.08,.14c-.36,.5-1.72,1.49-3.47,1.46,.37,.21,.81,.37,1.29,.39l-.07,1.5Z"/><path class="d" d="M23.57,38.31c-1.97-2.16-10.41-1.44-13.5-.98l-.22-1.48c1.22-.18,11.97-1.68,14.83,1.45l-1.11,1.01Z"/><path class="d" d="M24.01,38.34l-1.04-1.08c.06-.06,1.47-1.41,4.43-2.23,1.26-.35,2.46-.43,3.52-.5,1.4-.09,2.61-.17,3.7-.81l.76,1.29c-1.4,.82-2.84,.91-4.37,1.01-1.03,.07-2.1,.13-3.21,.44-2.56,.71-3.78,1.85-3.79,1.87Z"/><path class="d" d="M9.23,44.38c-1.86-.56-7.32-1.68-7.37-1.69l.3-1.47c.23,.05,5.57,1.15,7.5,1.72l-.43,1.44Z"/><path class="d" d="M53.8,42.98l-1.49-.16c.09-.82,.16-1.54,.22-2.13,.13-1.31,.17-1.77,.25-2.03,.4-1.3,1.31-2.31,3.74-5l.82-.9c2.76-3.06,3.62-6.62,3.62-6.66,.23-1.4-.4-2.6-1.11-3.68l-.47-.71,1.06-.52s.2-.1,.38-.31c-1.14-.37-2.54-1.07-2.88-1.25l-1.15-.59,1.08-.71s.12-.09,.22-.25c-1.53-.62-3.02-1.97-3.09-2.04l-.23-.18c-2.22-2.6-2.27-2.7-2.18-3.15,.64-2.39,.04-5.25-.13-5.84-.38-.36-1.51-.58-2.28-.72l-.34-.06c-.77-.16-1.92,.08-2.29,.18l-.4-1.45c.07-.02,1.7-.46,2.99-.21l.33,.06c1.23,.24,2.63,.51,3.27,1.38l.09,.16c.25,.6,.94,3.8,.31,6.54,.32,.43,1.16,1.41,1.72,2.07l.09,.06c.56,.51,2.08,1.72,3.2,1.97l.59,.13v.6c0,.43-.11,.81-.27,1.12,.94,.44,2.03,.88,2.47,.91l.82,.06-.14,.81c-.15,.84-.65,1.43-1.09,1.78,.66,1.14,1.18,2.49,.91,4.12-.05,.21-.95,4.01-3.98,7.37l-.82,.91c-2.2,2.44-3.12,3.45-3.42,4.43-.04,.16-.12,.92-.19,1.73-.06,.6-.13,1.32-.22,2.15Z"/><path class="d" d="M50.11,30.36l-1.36-.63c.23-.51,.34-.84,.43-1.1,.18-.54,.32-.91,.89-1.54,.94-1.04,1.82-1.58,2.47-1.88-.5-.51-1.17-1.18-1.65-1.9-.94-1.1-1.5-3.54-2.04-5.91-.26-1.12-.6-2.61-.86-3.17-.57,.09-1.08,.07-1.53-.08l.07,.56-1.49,.2-1.52-9.96,.36-.27c.22-.17,2.21-1.6,3.73-.72l.16,.09,.1,.16c.11,.18,.42,.89,.92,2.13l-1.39,.56c-.25-.62-.54-1.34-.7-1.7-.43-.09-1.09,.19-1.55,.45l.94,6.12h.1s.09,.55,.48,.82c.31,.21,.77,.25,1.37,.1l.09-.02h.09c1.09,.01,1.43,1.48,2.09,4.4,.46,2,1.02,4.5,1.73,5.28l.07,.09c.42,.64,1.07,1.29,1.55,1.77,.63,.64,.9,.9,.88,1.33v.32l-.26,.24c-.14,.12-.28,.17-.46,.22-.4,.13-1.45,.46-2.64,1.78-.39,.43-.44,.59-.58,1-.09,.29-.22,.68-.49,1.27Z"/><path class="d" d="M15.22,48.65l-.47-.92c-.4-.78-1.22-1.59-1.79-2.1l-1.14,1.72-.59-1.11c-.9-1.68-2.12-1.89-2.18-1.9l.2-1.49c.07,0,1.44,.2,2.64,1.68l.73-1.11,.64,.49c.07,.05,1.32,1.02,2.23,2.2,.25-.35,.4-.64,.41-.65l.48-.69,.51,.13c.08,.02,.17,.04,.28,.06,.4,.09,1.01,.22,1.63,.51l-.64,1.36c-.39-.18-.77-.28-1.11-.36-.2,.32-.6,.93-1.08,1.43l-.73,.73Z"/><path class="d" d="M10.08,37.38c-.99-1.42-5.39-1.16-7.94-.67l-.29-1.47c.77-.15,7.59-1.39,9.46,1.28l-1.23,.86Z"/><rect class="d" x="18.67" y="26.56" width="1.5" height="2.28" transform="translate(-10.31 43.84) rotate(-83.48)"/><path class="d" d="M41.54,38.46l.15-1.39c.15-1.41-1.4-2.99-2.01-3.49l.94-1.17c.09,.07,1.82,1.49,2.39,3.32,.88-.96,1.52-2.38,1.73-2.99l.27-.78,.75,.35s1.56,.69,3.22,.22c-.26-.63-.28-1.33-.3-2.06-.03-1.55-.08-3.49-2.64-5.91l-.58-.55,.58-.55s.54-.51,1.02-1.08c-1.84-1.26-3.95-3.91-4.22-4.25l-.4-.51,1.42-1.51,1.09,1.03-.53,.56c.99,1.19,2.86,3.24,4.05,3.76l.81,.35-.48,.74c-.33,.51-.81,1.06-1.19,1.45,2.48,2.61,2.53,4.8,2.56,6.42,.02,.98,.05,1.52,.45,1.88l.78,.72-.94,.49c-1.8,.95-3.62,.67-4.6,.39-.47,1.07-1.52,3.06-3.1,3.88l-1.24,.64Z"/><path class="d" d="M34.79,38.3c-.18,0-.36,0-.55-.02l-1.01-.07,.37-.95c1.04-2.66-.28-5.19-.29-5.22l1.33-.7c.06,.11,1.33,2.56,.68,5.44,2.29-.22,2.91-1.86,2.94-1.93l1.42,.48c-.36,1.07-1.83,2.97-4.87,2.97Z"/><path class="d" d="M42.33,31.2l-.64-1.36s.64-.31,1.33-.93c-1.4-1.2-2.35-3.65-2.55-4.21l-.22-.61,.57-.31c.17-.09,.55-.33,.89-.65-1.43-1.3-3.06-4.12-3.42-4.77l1.31-.73c.97,1.73,2.7,4.32,3.51,4.69l.79,.36-.46,.73c-.37,.59-.92,1.05-1.34,1.34,.58,1.37,1.56,3.05,2.35,3.31l1.05,.35-.72,.85c-1.11,1.31-2.4,1.92-2.46,1.95Z"/><path class="d" d="M34.81,29.67l-.87-1.22c.32-.23,1.12-.85,1.67-1.45-1.17-1.32-2.2-3.56-2.32-3.85l1.37-.62c.36,.8,1.5,3.05,2.44,3.82l.52,.43-.37,.56c-.71,1.08-2.26,2.2-2.43,2.32Z"/><path class="d" d="M76,76H0V0H76V76ZM4,72H72V4H4V72Z"/><path class="d" d="M33.73,21.69l-1.26-.82c.05-.08,1.32-2.11-.02-3.14-.37-.29-.63-.27-.79-.23-.65,.15-1.31,1.08-1.53,1.51l-1.34-.68c.1-.2,1.03-1.95,2.54-2.29,.49-.11,1.24-.11,2.04,.51,1.95,1.5,1.09,4.02,.36,5.14Z"/><path class="d" d="M48.17,54.54l-.75-.35c-1.51-.7-2.29-2.24-2.68-3.52l-1.81,3.18-3.82-3.13-.35,3.53-.65,.02c-1.87,.05-3.46-1.48-4.5-2.81l-.22,2.21-.82-.18c-1.81-.4-3.94-2.3-4.92-3.25-.74,.69-2.06,1.86-2.96,2.32l-.94,.48-.15-1.04s-.49-3.08-2.97-4c-.07-.03-1.3-.62-2.46-1.13l.6-1.38c1.19,.52,2.45,1.12,2.45,1.12,2.2,.81,3.18,2.81,3.6,4.07,.86-.65,1.9-1.62,2.33-2.04l.55-.54,.52,.56c.64,.68,2.38,2.33,3.87,3.05l.5-4.94,1.16,2.15c.52,.96,2.07,3.26,3.67,3.75l.49-4.91,4.61,3.78,3.16-5.54,.17,2.48s.19,2.57,1.52,3.84l2.03-5.79,.81,.56c.69,.47,1.78,1.14,2.7,1.57-.41-1.5-.89-3.98-.52-6.48l1.48,.22c-.51,3.5,.88,7.12,.9,7.15l.44,1.14-1.21-.12c-1.1-.11-2.8-1.07-3.82-1.71l-1.99,5.66Z"/><polygon class="d" points="24.96 24.35 24.21 21.93 27.68 20.85 28.12 22.28 26.08 22.92 26.39 23.9 24.96 24.35"/><path class="d" d="M49.72,47.69l-2.03,5.75c-2.41-1.11-2.66-4.93-2.66-4.93l-2.37,4.13-4.22-3.44-.43,4.25c-2.67,.1-5-4.21-5-4.21l-.35,3.44c-2.18-.48-5.07-3.55-5.07-3.55,0,0-1.73,1.5-2.76,2.31,1.82,2.65,2.67,6.1,2.06,8.02-1.14,4.8-3.98,10.16-6.23,14.39l24.16,.07c5.22-8.25,7.11-17.25,8.19-24.41-1.26-.62-3.31-1.83-3.31-1.83Zm-15.97,6.26s0,.05,0,.08c0,.53,.46,.96,1.02,.96s1.02-.43,1.02-.96c0-.04,0-.07,0-.11l1.35,.18c-.04,1.19-1.08,2.15-2.36,2.15s-2.32-.96-2.36-2.16l1.35-.14Zm-4.07,14.86c-1.28,0-2.32-.96-2.36-2.16l1.35-.14s0,.05,0,.08c0,.53,.46,.96,1.02,.96s1.02-.43,1.02-.96c0-.04,0-.07,0-.11l1.35,.18c-.04,1.19-1.08,2.15-2.36,2.15Zm1.67-8.04c-1.28,0-2.32-.96-2.36-2.16l1.35-.14s0,.05,0,.08c0,.53,.46,.96,1.02,.96s1.02-.43,1.02-.96c0-.04,0-.07,0-.11l1.35,.18c-.04,1.19-1.08,2.15-2.36,2.15Zm4.67,4.14c-1.28,0-2.32-.96-2.36-2.16l1.35-.14s0,.05,0,.08c0,.53,.46,.96,1.02,.96s1.02-.43,1.02-.96c0-.04,0-.07,0-.11l1.35,.18c-.04,1.19-1.08,2.15-2.36,2.15Zm2.6-7.27l1.35-.14s0,.05,0,.08c0,.53,.46,.96,1.02,.96s1.02-.43,1.02-.96c0-.04,0-.07,0-.11l1.35,.18c-.04,1.19-1.08,2.15-2.36,2.15s-2.32-.96-2.36-2.16Zm3.21,11.17c-1.28,0-2.32-.96-2.36-2.16l1.35-.14s0,.05,0,.08c0,.53,.46,.96,1.02,.96s1.02-.43,1.02-.96c0-.04,0-.07,0-.11l1.35,.18c-.04,1.19-1.08,2.15-2.36,2.15Zm3.83-4.38c-1.28,0-2.32-.96-2.36-2.16l1.35-.14s0,.05,0,.08c0,.53,.46,.96,1.02,.96s1.02-.43,1.02-.96c0-.04,0-.07,0-.11l1.35,.18c-.04,1.19-1.08,2.15-2.36,2.15Zm1.97-8.02c-1.28,0-2.32-.96-2.36-2.16l1.35-.14s0,.05,0,.08c0,.53,.46,.96,1.02,.96s1.02-.43,1.02-.96c0-.04,0-.07,0-.11l1.35,.18c-.04,1.19-1.08,2.15-2.36,2.15Z"/><path class="d" d="M62.17,66.18c-5.93-1.14-6.81,1.5-12.42,1.28l-2.3,5.81c-.04,.33,21.21,.13,21.21,.13,0,0-.55-6.07-6.49-7.22Zm-8.46,5.95c-1.28,0-2.32-.97-2.36-2.17l1.35-.15s0,.05,0,.08c0,.53,.46,.96,1.02,.96s1.02-.43,1.02-.96c0-.04,0-.07,0-.11l1.35,.18c-.04,1.2-1.08,2.16-2.36,2.16Zm7.75,0c-1.28,0-2.32-.97-2.36-2.17l1.35-.15s0,.05,0,.08c0,.53,.46,.96,1.02,.96s1.02-.43,1.02-.96c0-.04,0-.07,0-.11l1.35,.18c-.04,1.2-1.08,2.16-2.36,2.16Z"/><path class="d" d="M24.26,54.42l-2.12,.95s-.13-1.54-.69-2.64c-7.01,.42-11.7,2.64-13.85,6.46-3.97,7.82,1.35,14.4,1.35,14.4l10.36-.11,3.36-6.56s-4.45-2.19-3.35-5.04c1.19-2.18,5.65-1.93,5.65-1.93,.47-1.86,.15-2.91-.72-5.52Zm-12.19,5.66s0,.05,0,.08c0,.53,.46,.96,1.02,.96s1.02-.43,1.02-.96c0-.04,0-.07,0-.11l1.35,.18c-.04,1.2-1.08,2.16-2.36,2.16s-2.32-.97-2.36-2.17l1.35-.15Zm1.01,12.19c-1.28,0-2.32-.97-2.36-2.17l1.35-.15s0,.05,0,.08c0,.53,.46,.97,1.02,.97s1.02-.43,1.02-.97c0-.04,0-.07,0-.11l1.35,.18c-.04,1.2-1.08,2.16-2.36,2.16Zm2.64-5.09c-1.28,0-2.32-.97-2.36-2.17l1.35-.15s0,.05,0,.08c0,.53,.46,.96,1.02,.96s1.02-.43,1.02-.96c0-.04,0-.07,0-.11l1.35,.18c-.04,1.2-1.08,2.16-2.36,2.16Z"/></g></g></g></svg>